<svg xmlns="http://www.w3.org/2000/svg" viewBox="0 0 720 1050" width="720" height="1050" preserveAspectRatio="xMidYMid meet" style="width: 100%; height: 100%; transform: translate3d(0px, 0px, 0px); content-visibility: visible;"><defs><clipPath id="__lottie_element_5405"><rect width="720" height="1050" x="0" y="0"></rect></clipPath></defs><g clip-path="url(#__lottie_element_5405)"><g transform="matrix(1,0,0,1,357,506)" opacity="1" style="display: block;"><path fill="rgb(241,77,255)" fill-opacity="1" d=" M-211,400.94 C-211,400.94 -211,-432.5 -211,-432.5 C-211,-432.5 217,-432.5 217,-432.5 C217,-432.5 217,400.94 217,400.94 M-242,425 C-242,425 -211.5,402.25 -211.5,402.25 C-211.5,402.25 217,402.25 217,402.25 C217,402.25 247.75,424.75 247.75,424.75 M248,425.25 C248,425.25 248,479.25 248,479.25 C248,479.25 -242,479.25 -242,479.25 C-242,479.25 -242,425.25 -242,425.25 C-242,425.25 248,425.25 248,425.25z M249.25,480.25 C249.25,480.25 275,502.25 275,502.25 C275,502.25 -270.56,502.25 -270.56,502.25 C-270.56,502.25 -243,480.25 -243,480.25 M274.25,502 C274.25,502 274.25,553 274.25,553 C274.25,553 -270.25,553 -270.25,553 C-270.25,553 -270.25,502 -270.25,502"></path><g opacity="1" transform="matrix(1,0,0,1,3,-4)"><path stroke-linecap="round" stroke-linejoin="bevel" fill-opacity="0" stroke="rgb(18,17,23)" stroke-opacity="1" stroke-width="5" d=" M-214,404.93798828125 C-214,404.93798828125 -214,-428.5 -214,-428.5 C-214,-428.5 214,-428.5 214,-428.5 C214,-428.5 214,404.93798828125 214,404.93798828125"></path></g><g opacity="1" transform="matrix(1,0,0,1,3,-62.25)"><path stroke-linecap="round" stroke-linejoin="bevel" fill-opacity="0" stroke="rgb(18,17,23)" stroke-opacity="1" stroke-width="5" d=" M-245,487.25 C-245,487.25 -214.5,464.5 -214.5,464.5 C-214.5,464.5 214,464.5 214,464.5 C214,464.5 244.75,487 244.75,487"></path></g><g opacity="1" transform="matrix(1,0,0,1,3,-56.75)"><path stroke-linecap="round" stroke-linejoin="bevel" fill-opacity="0" stroke="rgb(18,17,23)" stroke-opacity="1" stroke-width="5" d=" M245,482 C245,482 245,536 245,536 C245,536 -245,536 -245,536 C-245,536 -245,482 -245,482 C-245,482 245,482 245,482z"></path></g><g opacity="1" transform="matrix(1,0,0,1,3,32.25)"><path stroke-linecap="round" stroke-linejoin="bevel" fill-opacity="0" stroke="rgb(18,17,23)" stroke-opacity="1" stroke-width="5" d=" M246.25,448 C246.25,448 272,470 272,470 C272,470 -273.56201171875,470 -273.56201171875,470 C-273.56201171875,470 -246,448 -246,448"></path></g><g opacity="1" transform="matrix(1,0,0,1,2.5,527.5)"><path stroke-linecap="round" stroke-linejoin="bevel" fill-opacity="0" stroke="rgb(18,17,23)" stroke-opacity="1" stroke-width="5" d=" M271.75,-25.5 C271.75,-25.5 271.75,25.5 271.75,25.5 C271.75,25.5 -272.75,25.5 -272.75,25.5 C-272.75,25.5 -272.75,-25.5 -272.75,-25.5"></path></g></g></g></svg>