<?xml version="1.0" encoding="utf-8"?>
<!-- Generator: Adobe Illustrator 28.1.0, SVG Export Plug-In . SVG Version: 6.00 Build 0)  -->
<svg version="1.1" id="Layer_1" xmlns="http://www.w3.org/2000/svg" xmlns:xlink="http://www.w3.org/1999/xlink" x="0px" y="0px"
	 viewBox="0 0 122.9 110.3" style="enable-background:new 0 0 122.9 110.3;" xml:space="preserve">
<style type="text/css">
	.st0{fill-rule:evenodd;clip-rule:evenodd;fill:#FF1717;}
</style>
<g>
	<path class="st0" d="M18.1,26.1c1.7,0.6,4.2-0.8,8-5.3c1.4,0.5,2.6,1.7,3.1,4.2c0.9,4.8-0.5,7.9-2.6,12.1c-2.2,4.6-4.6,9-3.6,15.1
		c-4.1,0.5-7.9,0.4-11.4-0.5c-2-0.2-3.6,0-4.8,0.4c-1.2,0.5-2,1.3-2.3,2.5C3.7,59.4,1.9,62.4,0,65.3c-0.1,2.4,0,4.7,0.9,6.6l0.5,1.4
		l0.2,3.1c0.3,4.1,1.8,7.5,5.1,2c0.3-2.1,0-4.2-0.9-6.3l-1.5-0.7c0.1-3,0.4-5.8,1.4-8.4c0.8-2.5,2.1-4.2,4.2-5.2l2.1-0.2l-1.2,3.2
		c-0.3,3.4-0.7,6.4-1.9,8c-0.7,2.4-0.4,3.8,0.9,4.4c1,0.4,1.8,2.2,2.7,5.6c0.9,2,1.9,3,3.2,3.2c1.4-0.3,1.6-3,1.1-7.3
		c-1-1.3-2.1-1.8-3.1-1.9c0.2-2.3,0.1-4.5-0.3-6.6c0.2-2.7,1-5.1,3.4-7.2c0.9,2.5,4.9,3.6,9.9,4.2l3.3-3.4
		c8.8,8.3,18.9,13.1,28.8,9.4c0.7,0.5,1,2.5,1.2,6c2,2.9,3.9,8.2,5.8,12c1.4,2.9,1.1,5.3-0.2,7.4c-3,1.3-6,3.3-7.8,5.4
		c-2.9,0.1-5.2,0.3-7,1.2c-1.3,1-2,2.2-2.2,3.8l1.5,0.6l-1.7,2.4c0.6,2.1,2.6,2.6,6.5,2.4l2.3-3.9l4.4-1.2c1.6-3.2,4.2-6.3,9.6-9
		c3.6,0.2,5.6-1.8,5.4-6.4c-1.8-4.2-2.5-8.2-0.8-11.8c7.7-4.8,12.5-12,11.9-20.2c12.3-3.2-6.4,28.4,28.9,21.4c2-0.4,4.2-1.1,6.4-2
		c-4.6-0.8-17.7-4-20-9.6c-5.9-8.4-12.1-14.5-18.7-17.4c-4.5-5.7-12.4-7.9-22.1-8.2c-2.9-0.3-5.4-1-7.4-2.6
		c2-14.2-11.6-21.2-1.7-16.8C48.8,12.3,35.6,8.9,44.9,10c-4.8-4.4-10.8-6.8-19.3-5.2c-1.8-2.7-6.2-8.3-4.8-1.5l-2.2-2l-0.1,6.8
		c-2.6,2-4,8.6-6,12.9c-1.7,1.7-2.4,3.7-1.8,6.9C13.3,31.3,17.5,30.5,18.1,26.1L18.1,26.1z"/>
</g>
</svg>
