<?xml version="1.0" encoding="utf-8"?>
<!-- Generator: Adobe Illustrator 28.1.0, SVG Export Plug-In . SVG Version: 6.00 Build 0)  -->
<svg version="1.1" xmlns="http://www.w3.org/2000/svg" xmlns:xlink="http://www.w3.org/1999/xlink" x="0px" y="0px"
	 viewBox="0 0 175.8 175.8" style="enable-background:new 0 0 175.8 175.8;" xml:space="preserve">
<style type="text/css">
	.st0{fill:#FFFF00;}
	.st1{display:none;}
	.st2{display:inline;fill-rule:evenodd;clip-rule:evenodd;fill:#E4B89E;stroke:#121117;stroke-width:5;stroke-miterlimit:10;}
	.st3{fill-rule:evenodd;clip-rule:evenodd;fill:#E4B89E;stroke:#121117;stroke-width:5;stroke-miterlimit:10;}
	.st4{fill:#B07F62;stroke:#121117;stroke-width:5;stroke-miterlimit:10;}
	.st5{fill:none;stroke:#121117;stroke-width:5;stroke-linecap:round;stroke-linejoin:round;stroke-miterlimit:10;}
	.st6{fill-rule:evenodd;clip-rule:evenodd;stroke:#121117;stroke-width:3;stroke-miterlimit:10;}
	.st7{fill:none;stroke:#121117;stroke-width:3;stroke-linecap:round;stroke-linejoin:round;stroke-miterlimit:10;}
	.st8{display:inline;fill-rule:evenodd;clip-rule:evenodd;stroke:#121117;stroke-width:3;stroke-miterlimit:10;}
	.st9{display:inline;fill:none;stroke:#121117;stroke-width:3;stroke-linejoin:round;stroke-miterlimit:10;}
	.st10{display:inline;}
	.st11{fill:none;stroke:#121117;stroke-width:4;stroke-linecap:round;stroke-linejoin:round;stroke-miterlimit:10;}
	.st12{fill:#121117;}
</style>
<g id="Ebene_31">
	<g>
		<rect class="st0" width="175.8" height="175.8"/>
	</g>
</g>
<g id="Ebene_99">
	<g id="Ebene_120" class="st1">
		<path class="st2" d="M262.5,213.8c7.5-6.9,12.2-0.2,12.2-0.2c2,1.3,4.7,3.9,6.2,5.4c3.3,3.5,7,9,8.9,15.6
			c0.6,2.1,2.2,11.4,0.3,13.1c-1.6,1.4-3.8,0-3.9-0.1c-1.3-1.6,2.9,5.5,3.7,7.1c2.7,5.4,7.3,16.1,3.4,21.9c-0.9,1.4-2.4,1.8-3.9,1
			c-0.8-0.5-1.7-1.9-2.2-1.5c-0.4,0.4,1,1.9,1,1.9c0.8,1.5,1.7,2.9,2.4,4.4c2.2,4.3,7.7,13.1,4.3,17.8c-2,2.7-5.4-0.5-6.5-1.7
			c-0.6-0.6-2.1-2.7-1.7-1.9c4.5,9.4,6.3,23.1,5.1,27.6c-0.4,1.4-1.6,5.6-3.5,5.8c-2.5,0.2-3.5-0.3-4.6-0.9
			c-0.2-0.1,3.4,5.6,5.3,8.7c2.2,3.4,8.4,13.8,4.6,16.4c-3.7,2.4-8.8-1.2-8.1,0.1c0.8,1.6,4,6.2,4.8,8.6c1.2,3.5,1,4.8,0,6.1
			c-2.1,2.7-6,0.7-4.8,2.1c1.4,1.7,3.5,5,5.9,10.2c3.4,7.2,0.4,15.7-4.9,15.7c0,0-5.5,3.8-22.9-26.2c-12.8-22.1,1.9-89.7,5.3-119.8
			C271.9,226.6,246.5,228.6,262.5,213.8z"/>
	</g>
	<path class="st3" d="M129.1,84.8c-2.4,20.7-10.1,59.3-10.5,88.5h31.5c-0.4-0.7-0.7-1.2-1-1.7c-1.9-3.1-5.5-8.7-5.3-8.7
		c1.1,0.6,2.1,1.1,4.6,0.9c1.9-0.2,3.1-4.4,3.5-5.8c1.3-4.6-0.5-18.2-5.1-27.6c-0.4-0.8,1.1,1.3,1.7,1.9c1.1,1.2,4.5,4.4,6.5,1.7
		c3.4-4.7-2.1-13.5-4.3-17.8c-0.8-1.5-1.7-2.9-2.4-4.4c0,0-1.4-1.6-1-1.9c0.5-0.4,1.4,1,2.2,1.5c1.5,0.9,3,0.4,3.9-1
		c3.9-5.8-0.7-16.5-3.4-21.9c-0.8-1.5-4.9-8.6-3.7-7.1c0.1,0.1,2.2,1.6,3.9,0.1c1.9-1.7,0.3-11-0.3-13.1c-1.9-6.6-5.6-12.1-8.9-15.6
		c-1.5-1.6-4.2-4.2-6.2-5.4c0,0-4.7-6.7-12.2,0.2C106.5,62.4,131.9,60.4,129.1,84.8z"/>
	<path class="st4" d="M61.5,150.4c4.4-1.9,5.4-7.9,9.6-9.7c3.1-1.3,6.3-2.5,9.5-3.6c-1.2,7.1-3.8,25-5.3,33.5
		c-0.2,0.9-0.3,1.8-0.5,2.7h53.4c-0.4-5.5-0.1-11.1,0.9-16.5c4-20.9,10.5-43.7,9.8-66.3c-0.2-8.4-1.4-15.5-4.1-23.5
		c-1.7-5-4.5-9.8-7.1-13.2c3.6-3.1,5.6-6,8.1-10.7c0.7-1.3,1.6-3.3,2.2-5.4c0.9-2.9,1.4-5.9,1.6-7.5c0.4-2.9,0.2-6.5-0.5-6.9
		c-1.5-0.8-6.3,0.3-7.9,1.1c-4.5,2.1-7.3,4.2-10.1,7.4c-1.3,1.5-3.6,4.8-4.4,6.6c-0.2,0.4-25.3-4.6-25.3-4.6
		c-0.1-1.6-1.5-4.9-2.2-6.4c-2-4-3.3-5.9-5.9-8.8c-1-1.2-7-6.3-8.9-3.8c-4.4,5.8-3,14.5-1.3,20c0.9,3,2.8,7.3,3.9,9
		c-5.5,14.8-6,16.6-6,16.6c-1.6,0.5-5.1,7.7-10.5,15.5c-3.4,4.9-5.5,7.6-7.2,9.5c-1.7,1.9-4.4,4.6-6.4,6.3
		c-4.3,3.7-6.9,5.9-11.8,9.7c-1.6,1.3-5.2,3.6-7.1,4.2c-2,0.7-4.4,1.5-5.8,3.3c-1.1,1.4-1.1,3.2-1.5,4.8c-2,7.9-1.4,18.9,6.3,24
		c1.1,0.7,1.9,2.3,3,2.8c1.4,0.7,3.1,0.9,4.7,0.9c-0.8,0.1,1.8,2.6,2.4,3.2c1.6,1.6,3.3,2.4,5.3,3.2
		C47.6,149.9,55.8,152.9,61.5,150.4z"/>
	<g id="Ebene_112">
		<path class="st3" d="M108.5,33.2c-4.2-1.2-8.5-1.3-12.5-0.7c-3.9,0.6-7.7,2.1-11,4.2c-2.1,1.3-3.4,2.7-5.8,5.2
			c-2.5,2.6-3.4,3.4-5.6,6.5c-1.4,2-4.6,6.8-5.6,8.6c-0.4,0.8-0.7,2.2,0.1,2.6c1,0.5,4,0.8,5.9,0.3c2.2-0.5,4-1.3,7.1-3.4
			c0.4-0.3,4.5-3.5,4.6-2.6c0.1,0.8-0.6,2.4-0.9,3.5c-0.6,1.9-2.2,6.6,1.2,7.1c3.2,0.5,5.7-5.1,7.2-7.2c0.1-0.2,1.9-2.8,2.5-2.3
			c0.3,0.3-0.1,1.7-0.2,2c-0.2,1.5-1.5,8.6,1.4,8.6c2.7,0,5.8-5.6,6.6-7.7c0.1-0.3,1-3.3,1.1-3.1c0.2,1.2,1.1,3.6,1.7,4.8
			c1.3,2.6,3.3,5,6.5,5.4c1.4,0.2,3.2-1,4.3-3.3c2.4-4.7,3-13,1.5-17.9C116.5,36.8,112.5,34.3,108.5,33.2z"/>
	</g>
	<g id="Ebene_110">
		<path class="st5" d="M115.9,117.4c-5.9,3.9-10.3,9.3-16.6,12.7c-2.8,1.5-6.1,2.4-9.1,3.6c-3.2,1.2-6.5,2.4-9.7,3.5"/>
	</g>
	<g id="Ebene_109">
		<path class="st5" d="M127.7,53.8c-0.7,0.6-1.4,1.1-2.1,1.7C124.6,56.2,124.6,56.2,127.7,53.8z"/>
	</g>
	<g id="mund">
		<path class="st5" d="M34.7,141.2c2.2,0,4.4-0.5,6.5-0.9c5.3-0.9,11-2.2,15.9-4.6c1.9-1,4.2-2.2,6-3.5c0.6-0.4,2.5-1.8,3.1-2.4"/>
	</g>
	<g id="Nasenlöcher">
		<g id="Ebene_95">
			<path class="st6" d="M30,112.9c-1.3,0.3-1.5,0.9-2.1,2c-0.8,1.6-1.5,3.1-1.4,4.9c0.1,1.6,0.4,3.4,2.4,2.9
				c0.5-0.1,2.1-1.2,2.6-1.6c1.3-1.2,1.6-3.5,1.5-5.2C32.9,114.7,31.6,112.6,30,112.9z"/>
		</g>
		<g id="Ebene_94">
			<path class="st7" d="M30,112.9c-1.3,0.3-1.5,0.9-2.1,2c-0.8,1.6-1.5,3.1-1.4,4.9c0.1,1.6,0.4,3.4,2.4,2.9
				c0.5-0.1,2.1-1.2,2.6-1.6c1.3-1.2,1.6-3.5,1.5-5.2C32.9,114.7,31.6,112.6,30,112.9z"/>
		</g>
		<g id="Ebene_93">
			<path class="st6" d="M43.4,116.4c-1.1,0.2-1.7,1.1-2,1.5c-1,1.3-1.5,3.8-1.1,5.5c0.3,1.2,1.3,3.2,3,2.9c0.7-0.1,1.3-0.5,1.8-0.9
				c1.6-1.6,1.5-2.5,1.8-4.7c0.2-1.6,0.1-2.6-0.8-3.5C45,116.1,44.4,116.1,43.4,116.4z"/>
		</g>
		<g id="Ebene_92">
			<path class="st7" d="M43.4,116.4c-1.1,0.2-1.7,1.1-2,1.5c-1,1.3-1.5,3.8-1.1,5.5c0.3,1.2,1.3,3.2,3,2.9c0.7-0.1,1.3-0.5,1.8-0.9
				c1.6-1.6,1.5-2.5,1.8-4.7c0.2-1.6,0.1-2.6-0.8-3.5C45,116.1,44.4,116.1,43.4,116.4z"/>
		</g>
	</g>
	<g id="Augen_links" class="st1">
		<path class="st8" d="M231.4,253l-5.4,3.5c0,0-0.1,0.9,0.6,2.3c0.7,1.2,2,1.9,3.5,1.8c2.6-0.2,4.1-2.8,4.4-5
			c0.4-2.3,0.4-5.3-0.7-7.4c-0.5-0.8-1.1-1.4-1.8-2c-0.3-0.2-1.9-1.1-3.6-0.3c-1.7,0.8-2.4,3.1-2.4,3.1L231.4,253z"/>
		<path class="st9" d="M231.4,253l-5.4,3.5c0,0-0.1,0.9,0.6,2.3c0.7,1.2,2,1.9,3.5,1.8c2.6-0.2,4.1-2.8,4.4-5
			c0.4-2.3,0.4-5.3-0.7-7.4c-0.5-0.8-1.1-1.4-1.8-2c-0.3-0.2-1.9-1.1-3.6-0.3c-1.7,0.8-2.4,3.1-2.4,3.1L231.4,253z"/>
		<path class="st8" d="M210.4,249.1l-5.4,3.5c0,0-0.1,0.9,0.6,2.3c0.7,1.2,2,1.9,3.5,1.8c2.6-0.2,4.1-2.8,4.4-5
			c0.4-2.3,0.4-5.3-0.7-7.4c-0.5-0.8-1.1-1.4-1.8-2c-0.3-0.2-1.9-1.1-3.6-0.3c-1.7,0.8-2.4,3.1-2.4,3.1L210.4,249.1z"/>
		<path class="st9" d="M210.4,249.1l-5.4,3.5c0,0-0.1,0.9,0.6,2.3c0.7,1.2,2,1.9,3.5,1.8c2.6-0.2,4.1-2.8,4.4-5
			c0.4-2.3,0.4-5.3-0.7-7.4c-0.5-0.8-1.1-1.4-1.8-2c-0.3-0.2-1.9-1.1-3.6-0.3c-1.7,0.8-2.4,3.1-2.4,3.1L210.4,249.1z"/>
	</g>
	<g id="Augen_rechts">
		<g id="Ebene_85">
			<path class="st6" d="M89.2,86.9l5.4,3.5c0,0,0.1,0.9-0.6,2.3c-0.7,1.2-2,1.9-3.5,1.8c-2.6-0.2-4.1-2.8-4.4-5
				c-0.4-2.3-0.4-5.3,0.7-7.4c0.5-0.8,1.1-1.4,1.8-2c0.3-0.2,1.9-1.1,3.6-0.3c1.7,0.8,2.4,3.1,2.4,3.1L89.2,86.9z"/>
		</g>
		<g id="Ebene_84">
			<path class="st7" d="M89.2,86.9l5.4,3.5c0,0,0.1,0.9-0.6,2.3c-0.7,1.2-2,1.9-3.5,1.8c-2.6-0.2-4.1-2.8-4.4-5
				c-0.4-2.3-0.4-5.3,0.7-7.4c0.5-0.8,1.1-1.4,1.8-2c0.3-0.2,1.9-1.1,3.6-0.3c1.7,0.8,2.4,3.1,2.4,3.1L89.2,86.9z"/>
		</g>
		<g id="Ebene_83">
			<path class="st6" d="M68.3,82.9l5.4,3.5c0,0,0.1,0.9-0.6,2.3c-0.7,1.2-2,1.9-3.5,1.8c-2.6-0.2-4.1-2.8-4.4-5
				c-0.4-2.3-0.4-5.3,0.7-7.4c0.5-0.8,1.1-1.4,1.8-2c0.3-0.2,1.9-1.1,3.6-0.3c1.7,0.8,2.4,3.1,2.4,3.1L68.3,82.9z"/>
		</g>
		<g id="Ebene_82">
			<path class="st7" d="M68.3,82.9l5.4,3.5c0,0,0.1,0.9-0.6,2.3c-0.7,1.2-2,1.9-3.5,1.8c-2.6-0.2-4.1-2.8-4.4-5
				c-0.4-2.3-0.4-5.3,0.7-7.4c0.5-0.8,1.1-1.4,1.8-2c0.3-0.2,1.9-1.1,3.6-0.3c1.7,0.8,2.4,3.1,2.4,3.1L68.3,82.9z"/>
		</g>
	</g>
	<g id="Augen_zu" class="st1">
		<g id="Ebene_79" class="st10">
			<path class="st11" d="M203.7,248.4c0.1,0.5,1,1.5,1.4,1.9c1.9,1.8,4.9,2.2,7.4,1.6c0.5-0.1,1.5-0.5,2-0.7"/>
		</g>
		<g id="Ebene_78" class="st10">
			<path class="st11" d="M225.3,253.2c1.1,1.4,2.5,2.6,4.9,3.1c2.5,0.5,4.9-0.1,6.5-1.1"/>
		</g>
	</g>
	<g id="Augenbrauen" class="st1">
		<g id="Ebene_81" class="st10">
			<path class="st11" d="M209.9,235.8c0.4,0.2,5.3,3.1,7.2,4.1"/>
		</g>
		<g id="Ebene_80" class="st10">
			<path class="st11" d="M226.9,241.9c0.8-0.2,7.2-1.2,9.7-1.6"/>
		</g>
	</g>
</g>
<g id="Ebene_29">
	<g>
		<path class="st12" d="M170.8,5v165.8H5V5H170.8 M175.8,0H0v175.8h175.8V0L175.8,0z"/>
	</g>
</g>
</svg>
