<?xml version="1.0" encoding="utf-8"?>
<!-- Generator: Adobe Illustrator 28.1.0, SVG Export Plug-In . SVG Version: 6.00 Build 0)  -->
<svg version="1.1" id="Layer_1" xmlns="http://www.w3.org/2000/svg" xmlns:xlink="http://www.w3.org/1999/xlink" x="0px" y="0px" width="13.89375px" height="18px"
	 viewBox="0 0 24.7 32" style="enable-background:new 0 0 24.7 32;" xml:space="preserve">
<style type="text/css">
	.st0{fill:#FFFF00;}
</style>
<g>
	<g>
		<path class="st0" d="M15.3,31.2C15.3,31.2,15.3,31.2,15.3,31.2l-5.2-8.8l-5.3,5.9c-0.6,0.7-1.2,1-1.5,1c-0.3,0-0.4-0.6-0.4-0.9
			L0.9,1.2l22.4,15.3c0.5,0.3,0.6,0.6,0.6,0.7c-0.1,0.3-0.6,0.7-1.6,0.9l-7.7,1.6l5.1,8.8c0,0,0,0.1-0.1,0.1L15.3,31.2L15.3,31.2z"
			/>
		<path d="M1.8,2.8l21,14.4c-0.2,0.1-0.4,0.2-0.7,0.2l-6.7,1.4l-2.2,0.4l1.1,1.9l4.2,7.2l-2.9,1.7l-4.2-7.2L10.3,21l-1.5,1.6
			l-4.5,5.1c-0.2,0.2-0.4,0.4-0.6,0.5L1.8,2.8 M0.3,0C0.3,0,0.2,0,0.2,0C0.1,0.1,0,0.3,0,0.4l2.1,28C2.2,29.6,2.7,30,3.4,30
			c0.6,0,1.4-0.5,2.1-1.2l4.5-5.1l4.6,7.9c0.2,0.3,0.5,0.4,0.8,0.4c0.1,0,0.3,0,0.4-0.1l4.2-2.4c0.4-0.3,0.5-0.8,0.3-1.2l-4.5-7.9
			l6.7-1.4c2-0.4,3.2-1.8,1.3-3.1L0.6,0.1C0.5,0,0.4,0,0.3,0L0.3,0z"/>
	</g>
</g>
</svg>
