<?xml version="1.0" encoding="utf-8"?>
<!-- Generator: Adobe Illustrator 28.1.0, SVG Export Plug-In . SVG Version: 6.00 Build 0)  -->
<svg version="1.1" xmlns="http://www.w3.org/2000/svg" xmlns:xlink="http://www.w3.org/1999/xlink" x="0px" y="0px"
	 viewBox="0 0 170.3 170.3" style="enable-background:new 0 0 170.3 170.3;" xml:space="preserve">
<style type="text/css">
	.st0{fill:#FFFF00;}
	.st1{display:none;}
	.st2{display:inline;fill-rule:evenodd;clip-rule:evenodd;fill:#E4B89E;stroke:#121117;stroke-width:5;stroke-miterlimit:10;}
	.st3{fill-rule:evenodd;clip-rule:evenodd;fill:#E4B89E;stroke:#121117;stroke-width:5;stroke-miterlimit:10;}
	.st4{fill:#B07F62;stroke:#121117;stroke-width:5;stroke-miterlimit:10;}
	.st5{fill:none;stroke:#121117;stroke-width:5;stroke-linecap:round;stroke-linejoin:round;stroke-miterlimit:10;}
	.st6{fill-rule:evenodd;clip-rule:evenodd;stroke:#121117;stroke-width:3;stroke-miterlimit:10;}
	.st7{fill:none;stroke:#121117;stroke-width:3;stroke-linecap:round;stroke-linejoin:round;stroke-miterlimit:10;}
	.st8{display:inline;fill-rule:evenodd;clip-rule:evenodd;stroke:#121117;stroke-width:3;stroke-miterlimit:10;}
	.st9{display:inline;fill:none;stroke:#121117;stroke-width:3;stroke-linejoin:round;stroke-miterlimit:10;}
	.st10{display:inline;}
	.st11{fill:none;stroke:#121117;stroke-width:4;stroke-linecap:round;stroke-linejoin:round;stroke-miterlimit:10;}
</style>
<g id="Ebene_31">
	<g>
		<rect y="0" class="st0" width="170.3" height="170.3"/>
	</g>
</g>
<g id="Ebene_99">
	<g id="Ebene_120" class="st1">
	</g>
	<path class="st3" d="M149,172.1c-0.4-0.7-0.7-1.2-1-1.7c-1.9-3.1-5.5-8.7-5.3-8.7c1.1,0.6,2.1,1.1,4.6,0.9c1.9-0.2,3.1-4.4,3.5-5.8
		c1.3-4.6-0.5-18.2-5.1-27.6c-0.4-0.8,1.1,1.3,1.7,1.9c1.1,1.2,4.5,4.4,6.5,1.7c3.4-4.7-2.1-13.5-4.3-17.8c-0.8-1.5-1.7-2.9-2.4-4.4
		c0,0-1.4-1.6-1-1.9c0.5-0.4,1.4,1,2.2,1.5c1.5,0.9,3,0.4,3.9-1c3.9-5.8-0.7-16.5-3.4-21.9c-0.8-1.5-4.9-8.6-3.7-7.1
		c0.1,0.1,2.2,1.6,3.9,0.1c1.9-1.7,0.3-11-0.3-13.1c-1.9-6.6-5.6-12.1-8.9-15.6c-1.5-1.6-4.2-4.2-6.2-5.4c0,0-4.7-6.7-12.2,0.2
		c-16,14.7,9.4,12.8,6.6,37.1c-2.4,20.7-10.1,59.3-10.5,88.5"/>
	<path class="st4" d="M127.1,172.1c-0.4-5.5-0.1-11.1,0.9-16.5c4-20.9,10.5-43.7,9.8-66.3c-0.2-8.4-1.4-15.5-4.1-23.5
		c-1.7-5-4.5-9.8-7.1-13.2c3.6-3.1,5.6-6,8.1-10.7c0.7-1.3,1.6-3.3,2.2-5.4c0.9-2.9,1.4-5.9,1.6-7.5c0.4-2.9,0.2-6.5-0.5-6.9
		c-1.5-0.8-6.3,0.3-7.9,1.1c-4.5,2.1-7.3,4.2-10.1,7.4c-1.3,1.5-3.6,4.8-4.4,6.6c-0.2,0.4-25.3-4.6-25.3-4.6
		c-0.1-1.6-1.5-4.9-2.2-6.4c-2-4-3.3-5.9-5.9-8.8c-1-1.2-7-6.3-8.9-3.8c-4.4,5.8-3,14.5-1.3,20c0.9,3,2.8,7.3,3.9,9
		c-5.5,14.8-6,16.6-6,16.6c-1.6,0.5-5.1,7.7-10.5,15.5c-3.4,4.9-5.5,7.6-7.2,9.5c-1.7,1.9-4.4,4.6-6.4,6.3
		c-4.3,3.7-6.9,5.9-11.8,9.7c-1.6,1.3-5.2,3.6-7.1,4.2c-2,0.7-4.4,1.5-5.8,3.3c-1.1,1.4-1.1,3.2-1.5,4.8c-2,7.9-1.4,18.9,6.3,24
		c1.1,0.7,1.9,2.3,3,2.8c1.4,0.7,3.1,0.9,4.7,0.9c-0.8,0.1,1.8,2.6,2.4,3.2c1.6,1.6,3.3,2.4,5.3,3.2c5.3,2.3,13.5,5.3,19.1,2.8
		c4.4-1.9,5.4-7.9,9.6-9.7c3.1-1.3,6.3-2.5,9.5-3.6c-1.2,7.1-3.8,25-5.3,33.5c-0.2,0.9-0.3,1.8-0.5,2.7"/>
	<g id="Ebene_112">
		<path class="st3" d="M107.4,32c-4.2-1.2-8.5-1.3-12.5-0.7c-3.9,0.6-7.7,2.1-11,4.2c-2.1,1.3-3.4,2.7-5.8,5.1
			c-2.5,2.6-3.4,3.4-5.6,6.5c-1.4,2-4.6,6.8-5.6,8.6c-0.4,0.8-0.7,2.2,0.1,2.6c1,0.5,4,0.8,5.9,0.3c2.2-0.5,4-1.3,7.1-3.4
			c0.4-0.3,4.5-3.5,4.6-2.6c0.1,0.8-0.6,2.4-0.9,3.5c-0.6,1.9-2.2,6.6,1.2,7.1c3.2,0.5,5.7-5.1,7.2-7.2c0.1-0.2,1.9-2.8,2.5-2.3
			c0.3,0.3-0.1,1.7-0.2,2c-0.2,1.5-1.5,8.6,1.4,8.6c2.7,0,5.8-5.6,6.6-7.7c0.1-0.3,1-3.3,1.1-3.1c0.2,1.2,1.1,3.6,1.7,4.8
			c1.3,2.6,3.3,5,6.5,5.4c1.4,0.2,3.2-1,4.3-3.3c2.4-4.7,3-13,1.5-17.9C115.3,35.7,111.4,33.1,107.4,32z"/>
	</g>
	<g id="Ebene_110">
		<path class="st5" d="M114.7,116.2c-5.9,3.9-10.3,9.3-16.6,12.7c-2.8,1.5-6.1,2.4-9.1,3.6c-3.2,1.2-6.5,2.4-9.7,3.5"/>
	</g>
	<g id="Ebene_109">
		<path class="st5" d="M126.6,52.6c-0.7,0.6-1.4,1.1-2.1,1.7C123.5,55.1,123.5,55.1,126.6,52.6z"/>
	</g>
	<g id="mund">
		<path class="st5" d="M33.6,140c2.2,0,4.4-0.5,6.5-0.9c5.3-0.9,11-2.2,15.9-4.6c1.9-1,4.2-2.2,6-3.5c0.6-0.4,2.5-1.8,3.1-2.4"/>
	</g>
	<g id="Nasenlöcher">
		<g id="Ebene_95">
			<path class="st6" d="M28.9,111.7c-1.3,0.3-1.5,0.9-2.1,2c-0.8,1.6-1.5,3.1-1.4,4.9c0.1,1.6,0.4,3.4,2.4,2.9
				c0.5-0.1,2.1-1.2,2.6-1.6c1.3-1.2,1.6-3.5,1.5-5.2C31.7,113.6,30.5,111.5,28.9,111.7z"/>
		</g>
		<g id="Ebene_94">
			<path class="st7" d="M28.9,111.7c-1.3,0.3-1.5,0.9-2.1,2c-0.8,1.6-1.5,3.1-1.4,4.9c0.1,1.6,0.4,3.4,2.4,2.9
				c0.5-0.1,2.1-1.2,2.6-1.6c1.3-1.2,1.6-3.5,1.5-5.2C31.7,113.6,30.5,111.5,28.9,111.7z"/>
		</g>
		<g id="Ebene_93">
			<path class="st6" d="M42.3,115.2c-1.1,0.2-1.7,1.1-2,1.5c-1,1.3-1.5,3.8-1.1,5.5c0.3,1.2,1.3,3.2,3,2.9c0.7-0.1,1.3-0.5,1.8-0.9
				c1.6-1.6,1.5-2.5,1.8-4.7c0.2-1.6,0.1-2.6-0.8-3.5C43.9,115,43.3,115,42.3,115.2z"/>
		</g>
		<g id="Ebene_92">
			<path class="st7" d="M42.3,115.2c-1.1,0.2-1.7,1.1-2,1.5c-1,1.3-1.5,3.8-1.1,5.5c0.3,1.2,1.3,3.2,3,2.9c0.7-0.1,1.3-0.5,1.8-0.9
				c1.6-1.6,1.5-2.5,1.8-4.7c0.2-1.6,0.1-2.6-0.8-3.5C43.9,115,43.3,115,42.3,115.2z"/>
		</g>
	</g>
	<g id="Augen_links" class="st1">
	</g>
	<g id="Augen_rechts">
		<g id="Ebene_85">
			<path class="st6" d="M88.1,85.7l5.4,3.5c0,0,0.1,0.9-0.6,2.3c-0.7,1.2-2,1.9-3.5,1.8c-2.6-0.2-4.1-2.8-4.4-5
				c-0.4-2.3-0.4-5.3,0.7-7.4c0.5-0.8,1.1-1.4,1.8-2c0.3-0.2,1.9-1.1,3.6-0.3c1.7,0.8,2.4,3.1,2.4,3.1L88.1,85.7z"/>
		</g>
		<g id="Ebene_84">
			<path class="st7" d="M88.1,85.7l5.4,3.5c0,0,0.1,0.9-0.6,2.3c-0.7,1.2-2,1.9-3.5,1.8c-2.6-0.2-4.1-2.8-4.4-5
				c-0.4-2.3-0.4-5.3,0.7-7.4c0.5-0.8,1.1-1.4,1.8-2c0.3-0.2,1.9-1.1,3.6-0.3c1.7,0.8,2.4,3.1,2.4,3.1L88.1,85.7z"/>
		</g>
		<g id="Ebene_83">
			<path class="st6" d="M67.1,81.8l5.4,3.5c0,0,0.1,0.9-0.6,2.3c-0.7,1.2-2,1.9-3.5,1.8c-2.6-0.2-4.1-2.8-4.4-5
				c-0.4-2.3-0.4-5.3,0.7-7.4c0.5-0.8,1.1-1.4,1.8-2c0.3-0.2,1.9-1.1,3.6-0.3c1.7,0.8,2.4,3.1,2.4,3.1L67.1,81.8z"/>
		</g>
		<g id="Ebene_82">
			<path class="st7" d="M67.1,81.8l5.4,3.5c0,0,0.1,0.9-0.6,2.3c-0.7,1.2-2,1.9-3.5,1.8c-2.6-0.2-4.1-2.8-4.4-5
				c-0.4-2.3-0.4-5.3,0.7-7.4c0.5-0.8,1.1-1.4,1.8-2c0.3-0.2,1.9-1.1,3.6-0.3c1.7,0.8,2.4,3.1,2.4,3.1L67.1,81.8z"/>
		</g>
	</g>
	<g id="Augen_zu" class="st1">
		<g id="Ebene_79" class="st10">
		</g>
		<g id="Ebene_78" class="st10">
		</g>
	</g>
	<g id="Augenbrauen" class="st1">
		<g id="Ebene_81" class="st10">
		</g>
		<g id="Ebene_80" class="st10">
		</g>
	</g>
</g>
<g id="Ebene_29">
</g>
</svg>
